<svg width="69" height="41" viewBox="0 0 69 41" fill="none" xmlns="http://www.w3.org/2000/svg">
    <g clip-path="url(#clip0_9_2)">
        <path
            d="M19.5119 14.8559C19.5119 15.6966 19.6035 16.378 19.7634 16.8778C19.9663 17.44 20.2106 17.9867 20.4943 18.5132C20.6086 18.6949 20.6542 18.8766 20.6542 19.0358C20.6542 19.2628 20.5172 19.49 20.2202 19.7172L18.7809 20.6712C18.5753 20.8076 18.3696 20.8757 18.1866 20.8757C17.9583 20.8757 17.7298 20.7621 17.5012 20.5576C17.1934 20.2287 16.918 19.8712 16.6789 19.49C16.4503 19.1041 16.2217 18.6721 15.9705 18.1499C14.1884 20.2395 11.9491 21.2846 9.25327 21.2846C7.3342 21.2846 5.80327 20.7393 4.68363 19.6492C3.56427 18.5585 2.99313 17.1048 2.99313 15.2876C2.99313 13.3569 3.67855 11.7895 5.0723 10.6083C6.46577 9.42704 8.31665 8.83643 10.6699 8.83643C11.4467 8.83643 12.2464 8.90449 13.0917 9.01811C13.9372 9.13173 14.8053 9.31342 15.7193 9.51788V7.85966C15.7193 6.13311 15.3536 4.92937 14.6452 4.22513C13.9143 3.5209 12.6804 3.18003 10.9211 3.18003C10.1214 3.18003 9.29909 3.27115 8.45357 3.47561C7.60832 3.67981 6.78571 3.92982 5.98601 4.24791C5.62052 4.40682 5.34641 4.49766 5.18631 4.54322C5.02648 4.58877 4.9122 4.61128 4.82082 4.61128C4.50089 4.61128 4.34106 4.38404 4.34106 3.90705V2.79388C4.34106 2.43051 4.38688 2.15798 4.50089 1.99907C4.61517 1.8399 4.82083 1.68099 5.14076 1.52208C5.94046 1.11315 6.89999 0.772289 8.01935 0.49976C9.13925 0.204452 10.3273 0.0683217 11.5839 0.0683217C14.3029 0.0683217 16.2907 0.681446 17.5702 1.90823C18.8267 3.13475 19.4666 4.99743 19.4666 7.49629V14.8559H19.5119ZM10.2357 18.3088C10.9899 18.3088 11.7666 18.1726 12.589 17.8998C13.4116 17.6273 14.1428 17.1275 14.7595 16.4461C15.1253 16.0146 15.3994 15.5376 15.5363 14.9923C15.6735 14.4473 15.7649 13.7883 15.7649 13.016V12.062C15.072 11.8944 14.3702 11.7654 13.6628 11.6759C12.9505 11.5859 12.2332 11.5404 11.5152 11.5395C9.98424 11.5395 8.86487 11.8348 8.11099 12.4482C7.35684 13.0616 6.99136 13.9247 6.99136 15.0604C6.99136 16.128 7.26547 16.9231 7.83661 17.4684C8.38511 18.0362 9.18481 18.3088 10.2357 18.3088ZM28.5824 20.7621C28.1711 20.7621 27.897 20.694 27.7143 20.5348C27.5315 20.3987 27.3714 20.0806 27.2345 19.6492L21.8654 2.08992C21.728 1.63543 21.6595 1.34013 21.6595 1.18122C21.6595 0.817844 21.8423 0.613113 22.208 0.613113H24.447C24.881 0.613113 25.1783 0.681446 25.3381 0.840354C25.5208 0.976753 25.658 1.29484 25.7949 1.72628L29.6333 16.7642L33.1976 1.72628C33.3119 1.27206 33.4491 0.976753 33.6316 0.840354C33.8146 0.704224 34.1345 0.61338 34.5458 0.61338H36.3735C36.8074 0.61338 37.1047 0.681446 37.2872 0.840354C37.4702 0.976753 37.6301 1.29484 37.7214 1.72628L41.3315 16.9459L45.2839 1.72628C45.4209 1.27206 45.581 0.976753 45.7408 0.840354C45.9235 0.704224 46.2206 0.61338 46.6319 0.61338H48.7566C49.1223 0.61338 49.328 0.795067 49.328 1.18122C49.328 1.29484 49.3051 1.40846 49.2822 1.54459C49.2593 1.68099 49.2137 1.86267 49.1223 2.11269L43.6158 19.6717C43.4789 20.1262 43.3191 20.4215 43.136 20.5576C42.9533 20.694 42.6563 20.7848 42.2682 20.7848H40.3033C39.8691 20.7848 39.572 20.7168 39.389 20.5576C39.2063 20.3987 39.0464 20.1034 38.9551 19.6492L35.4134 4.99743L31.895 19.6261C31.781 20.0806 31.6438 20.3759 31.461 20.5348C31.2783 20.694 30.9583 20.7621 30.5473 20.7621H28.5824ZM57.9417 21.3755C56.7536 21.3755 55.5655 21.2391 54.4232 20.9665C53.2807 20.694 52.3899 20.3984 51.7958 20.0581C51.4301 19.8534 51.1786 19.6264 51.0875 19.4219C50.9985 19.2214 50.9518 19.0049 50.9503 18.7858V17.6273C50.9503 17.1503 51.133 16.9231 51.4759 16.9231C51.6158 16.9236 51.7547 16.9467 51.8872 16.9914C52.0241 17.037 52.2298 17.1275 52.4583 17.2184C53.2653 17.5713 54.1077 17.8378 54.9714 18.0135C55.8664 18.194 56.7772 18.2853 57.6905 18.286C59.1298 18.286 60.2494 18.0362 61.0262 17.5365C61.803 17.0367 62.2143 16.3099 62.2143 15.3785C62.2143 14.7426 62.0086 14.22 61.5973 13.7883C61.186 13.3569 60.4092 12.9707 59.2899 12.6071L55.9768 11.585C54.3089 11.0625 53.0753 10.2902 52.3211 9.26786C51.5672 8.26832 51.1789 7.15543 51.1789 5.9742C51.1789 5.02021 51.3845 4.17958 51.7958 3.45256C52.2068 2.72582 52.7553 2.08992 53.4408 1.59015C54.1262 1.0676 54.903 0.681446 55.8169 0.408916C56.7307 0.136387 57.6902 0.0227661 58.6955 0.0227661C59.1982 0.0227661 59.7238 0.0455439 60.2265 0.113609C60.7521 0.181675 61.2318 0.272518 61.7116 0.363361C62.1685 0.476982 62.6027 0.590603 63.014 0.727001C63.4253 0.863132 63.7449 0.999531 63.9735 1.13566C64.2934 1.31762 64.5217 1.4993 64.6589 1.70377C64.7961 1.88545 64.8646 2.1352 64.8646 2.45329V3.5209C64.8646 3.99789 64.6818 4.24791 64.339 4.24791C64.1562 4.24791 63.8592 4.1568 63.4711 3.97511C62.1685 3.3845 60.7062 3.08919 59.0842 3.08919C57.7818 3.08919 56.7536 3.29365 56.0452 3.72536C55.3372 4.1568 54.9714 4.81575 54.9714 5.74696C54.9714 6.38313 55.2 6.92818 55.6568 7.35989C56.114 7.79133 56.9592 8.22303 58.1702 8.60918L61.4146 9.6315C63.0595 10.1541 64.2476 10.8808 64.9559 11.812C65.6643 12.7435 66.0071 13.8111 66.0071 14.9923C66.0071 15.9691 65.8012 16.855 65.4128 17.6273C65.0018 18.3996 64.4533 19.0811 63.7449 19.6264C63.0366 20.1942 62.1914 20.6032 61.2089 20.8985C60.1807 21.2165 59.1068 21.3755 57.9417 21.3755Z"
            fill="#252F3E" />
        <path
            d="M62.2598 32.4152C54.7431 37.9352 43.8217 40.8655 34.4315 40.8655C21.2711 40.8655 9.41336 36.0269 0.457111 27.9856C-0.251217 27.3497 0.38838 26.4865 1.23363 26.986C10.9211 32.5744 22.8705 35.9589 35.2312 35.9589C43.5705 35.9589 52.7324 34.2326 61.1634 30.6889C62.4199 30.1208 63.4937 31.5068 62.2598 32.4152ZM65.3902 28.8715C64.4306 27.645 59.0384 28.2809 56.5937 28.5762C55.8625 28.6673 55.7482 28.0311 56.411 27.5541C60.7062 24.5555 67.7663 25.4189 68.5887 26.4182C69.4113 27.4405 68.3601 34.4596 64.339 37.8216C63.7223 38.3441 63.1282 38.0716 63.4024 37.3901C64.3161 35.141 66.3497 30.0755 65.3902 28.8715Z"
            fill="#FF9900" />
    </g>
    <defs>
        <clipPath id="clip0_9_2">
            <rect width="69" height="41" fill="white" />
        </clipPath>
    </defs>
</svg>