<svg width="23" height="13" viewBox="0 0 23 13" fill="none" xmlns="http://www.w3.org/2000/svg">
  <path
    d="M13.2118 4.21173H15.1719V6.21642H16.1641C16.6276 6.21436 17.0877 6.13732 17.5266 5.98829C17.7573 5.91192 17.9793 5.81163 18.1891 5.68907C17.9206 5.31754 17.7612 4.87838 17.729 4.42111C17.6467 3.75383 17.8185 3.08003 18.2102 2.53361L18.4165 2.29533L18.6618 2.49298C19.3126 2.97024 19.7535 3.68077 19.8922 4.47579C20.649 4.24305 21.4672 4.31916 22.168 4.68751L22.4375 4.84376L22.2961 5.12033C22.0094 5.60397 21.5854 5.99144 21.0779 6.23349C20.5704 6.47555 20.0024 6.56125 19.4461 6.4797C17.7485 10.7086 14.0555 12.711 9.56958 12.711C8.45245 12.7774 7.33809 12.5411 6.34408 12.027C5.35006 11.5129 4.51325 10.74 3.92192 9.78986L3.90239 9.75626L3.72583 9.39767C3.3265 8.49171 3.17058 7.49721 3.27348 6.51251L3.30083 6.21564H4.97505V4.21173H6.93598V2.25079H10.8579V0.289856H13.211L13.2118 4.21173Z"
    fill="#3A4E55" />
  <path
    d="M19.5656 4.95391C19.579 4.52336 19.4848 4.09627 19.2913 3.7114C19.0978 3.32653 18.8113 2.99607 18.4578 2.75C18.1516 3.19953 18.0072 3.73974 18.0482 4.2821C18.0892 4.82445 18.3132 5.33679 18.6836 5.73516C17.9555 6.27466 17.0701 6.55938 16.164 6.54531H3.59605C3.48817 7.54826 3.66896 8.56115 4.11715 9.46484L4.26012 9.72656C4.35056 9.88007 4.44941 10.0285 4.55621 10.1711C5.07288 10.2044 5.54918 10.2161 5.98512 10.2062C6.69151 10.2106 7.3945 10.1081 8.07027 9.90234C8.10809 9.88929 8.14954 9.89179 8.18551 9.9093C8.22148 9.92681 8.24902 9.95789 8.26207 9.9957C8.27512 10.0335 8.27262 10.075 8.25511 10.1109C8.2376 10.1469 8.20652 10.1744 8.16871 10.1875C8.0984 10.2117 8.02496 10.2352 7.94918 10.2563C7.47893 10.3878 6.99546 10.4664 6.50777 10.4906C6.54215 10.4906 6.47183 10.4961 6.47183 10.4961L6.40777 10.5016C5.88507 10.5245 5.36158 10.5229 4.83902 10.4969L4.83121 10.5023C5.44056 11.1361 6.17858 11.6321 6.99561 11.9569C7.81264 12.2816 8.68975 12.4277 9.56793 12.3852C13.9117 12.3852 17.5961 10.4594 19.2281 6.13516C20.3859 6.25391 21.4984 5.95859 22.0039 4.97109C21.6264 4.77965 21.2096 4.67846 20.7864 4.67547C20.3631 4.67249 19.9457 4.7678 19.5656 4.95391Z"
    fill="#00AADA" />
  <path
    d="M19.5657 4.95391C19.5791 4.52336 19.4848 4.09627 19.2914 3.7114C19.0979 3.32653 18.8114 2.99607 18.4579 2.75C18.1517 3.19953 18.0072 3.73974 18.0483 4.2821C18.0893 4.82445 18.3133 5.33679 18.6836 5.73516C17.9556 6.27466 17.0701 6.55938 16.1641 6.54531H4.34067C4.2762 7.24558 4.39381 7.95063 4.68209 8.59206C4.97036 9.23349 5.41952 9.78953 5.98598 10.2062C6.69238 10.2106 7.39537 10.1081 8.07114 9.90234C8.08986 9.89588 8.10967 9.89317 8.12945 9.89436C8.14922 9.89556 8.16856 9.90063 8.18637 9.9093C8.20418 9.91797 8.22011 9.93006 8.23325 9.94489C8.24638 9.95971 8.25647 9.97698 8.26293 9.9957C8.2694 10.0144 8.27211 10.0342 8.27092 10.054C8.26972 10.0738 8.26465 10.0931 8.25598 10.1109C8.24731 10.1287 8.23521 10.1447 8.22039 10.1578C8.20557 10.1709 8.1883 10.181 8.16957 10.1875C8.09926 10.2117 8.02582 10.2352 7.95004 10.2563C7.4672 10.3916 6.97104 10.4738 6.47036 10.5016L6.45551 10.4844C7.93364 11.243 10.0774 11.2398 12.5352 10.2961C15.3396 9.16305 17.793 7.30578 19.6446 4.91406L19.5665 4.95156"
    fill="#27B9EC" />
  <path
    d="M3.61963 7.85314C3.69367 8.41405 3.86192 8.95842 4.11729 9.46329L4.26025 9.72501C4.3507 9.87852 4.44955 10.0269 4.55635 10.1695C5.07301 10.2029 5.54932 10.2146 5.98525 10.2047C6.69165 10.209 7.39464 10.1066 8.07041 9.90079C8.08913 9.89433 8.10895 9.89162 8.12872 9.89281C8.14849 9.89401 8.16783 9.89908 8.18564 9.90775C8.20345 9.91642 8.21938 9.92851 8.23252 9.94334C8.24566 9.95816 8.25574 9.97543 8.26221 9.99415C8.26867 10.0129 8.27138 10.0327 8.27019 10.0525C8.269 10.0722 8.26392 10.0916 8.25525 10.1094C8.24658 10.1272 8.23449 10.1431 8.21966 10.1563C8.20484 10.1694 8.18757 10.1795 8.16885 10.186C8.09854 10.2102 8.0251 10.2336 7.94932 10.2547C7.46703 10.388 6.97166 10.4684 6.47197 10.4945H6.39385C6.1665 10.507 5.9251 10.5149 5.67353 10.5149C5.39932 10.5149 5.11963 10.5094 4.81416 10.4945C5.42541 11.1288 6.16514 11.6251 6.98381 11.9503C7.80248 12.2754 8.68118 12.4218 9.56103 12.3797C13.2798 12.3797 16.5142 10.968 18.3892 7.84845L3.61963 7.85314Z"
    fill="#088CB9" />
  <path
    d="M4.45312 7.85314C4.64261 8.80475 5.19124 9.64687 5.98516 10.2047C6.69155 10.209 7.39454 10.1066 8.07031 9.90079C8.10813 9.88774 8.14958 9.89024 8.18555 9.90775C8.22152 9.92526 8.24906 9.95634 8.26211 9.99415C8.27516 10.032 8.27266 10.0734 8.25515 10.1094C8.23764 10.1454 8.20656 10.1729 8.16875 10.1859C8.09844 10.2102 8.025 10.2336 7.94922 10.2547C7.46447 10.3877 6.96681 10.4681 6.46484 10.4945C7.94297 11.2531 10.0805 11.2422 12.5375 10.2977C14.0538 9.70054 15.4703 8.87598 16.7383 7.85236L4.45312 7.85314Z"
    fill="#039CC7" />
  <path
    d="M6.72578 4.68046H6.86016V6.09686H6.72578V4.68046ZM6.46797 4.68046H6.60781V6.09686H6.46797V4.68046ZM6.21016 4.68046H6.35V6.09686H6.21094L6.21016 4.68046ZM5.95234 4.68046H6.09219V6.09686H5.95313L5.95234 4.68046ZM5.69453 4.68046H5.83438V6.09686H5.69531L5.69453 4.68046ZM5.44219 4.68046H5.57656V6.09686H5.44375V4.68046H5.44219ZM5.30078 4.53905H7V6.23905H5.30156V4.53905H5.30078ZM8.6875 2.71952H8.82187V4.13593H8.6875V2.71952ZM8.42969 2.71952H8.56953V4.13593H8.42969V2.71952ZM8.17188 2.71952H8.31172V4.13593H8.17188V2.71952ZM7.91406 2.71952H8.05391V4.13593H7.91406V2.71952ZM7.65625 2.71952H7.79531V4.13593H7.65625V2.71952ZM7.40391 2.71952H7.53828V4.13593H7.40391V2.71952ZM7.2625 2.57811H8.9625V4.27811H7.26328V2.57733L7.2625 2.57811Z"
    fill="#00ACD3" />
  <path
    d="M8.68745 4.68047H8.82183V6.09688H8.68745V4.68047ZM8.42964 4.68047H8.56948V6.09688H8.42964V4.68047ZM8.17183 4.68047H8.31167V6.09688H8.17183V4.68047ZM7.91401 4.68047H8.05386V6.09688H7.91401V4.68047ZM7.6562 4.68047H7.79526V6.09688H7.6562V4.68047ZM7.40386 4.68047H7.53823V6.09688H7.40386V4.68047ZM7.26245 4.53906H8.96245V6.23906H7.26323L7.26245 4.53906Z"
    fill="#26C2EE" />
  <path
    d="M10.6477 4.68047H10.782V6.09688H10.6477V4.68047ZM10.3898 4.68047H10.5297V6.09688H10.3906L10.3898 4.68047ZM10.132 4.68047H10.2719V6.09688H10.1328V4.68047H10.132ZM9.87422 4.68047H10.0156V6.09688H9.87578V4.68047H9.87422ZM9.61641 4.68047H9.75625V6.09688H9.61641V4.68047ZM9.36406 4.68047H9.49844V6.09688H9.36406V4.68047ZM9.22266 4.53906H10.9227V6.23906H9.22422V4.53906H9.22266Z"
    fill="#00ACD3" />
  <path
    d="M10.6477 2.71952H10.782V4.13593H10.6477V2.71952ZM10.3898 2.71952H10.5297V4.13593H10.3906L10.3898 2.71952ZM10.132 2.71952H10.2719V4.13593H10.1328V2.71952H10.132ZM9.87422 2.71952H10.0156V4.13593H9.87578V2.71952H9.87422ZM9.61641 2.71952H9.75625V4.13593H9.61641V2.71952ZM9.36406 2.71952H9.49844V4.13593H9.36406V2.71952ZM9.22266 2.57811H10.9227V4.27811H9.22422V2.57733L9.22266 2.57811ZM12.6094 4.68046H12.7437V6.09686H12.6094V4.68046ZM12.3516 4.68046H12.4914V6.09686H12.3516V4.68046ZM12.0938 4.68046H12.2336V6.09686H12.0938V4.68046ZM11.8359 4.68046H11.9758V6.09686H11.8359V4.68046ZM11.5781 4.68046H11.718V6.09686H11.5781V4.68046ZM11.3258 4.68046H11.4602V6.09686H11.3258V4.68046ZM11.1875 4.53905H12.8875V6.23905H11.1875V4.53905Z"
    fill="#26C2EE" />
  <path
    d="M12.6093 2.71952H12.7437V4.13593H12.6093V2.71952ZM12.3515 2.71952H12.4914V4.13593H12.3515V2.71952ZM12.0937 2.71952H12.2335V4.13593H12.0937V2.71952ZM11.8359 2.71952H11.9757V4.13593H11.8359V2.71952ZM11.5781 2.71952H11.7179V4.13593H11.5781V2.71952ZM11.3257 2.71952H11.4601V4.13593H11.3257V2.71952ZM11.1843 2.57811H12.8843V4.27811H11.1875V2.57733L11.1843 2.57811Z"
    fill="#00ACD3" />
  <path
    d="M12.6094 0.7578H12.7437V2.17421H12.6094V0.7578ZM12.3516 0.7578H12.4914V2.17421H12.3516V0.7578ZM12.0937 0.7578H12.2336V2.17421H12.0937V0.7578ZM11.8359 0.7578H11.9758V2.17421H11.8359V0.7578ZM11.5781 0.7578H11.718V2.17421H11.5781V0.7578ZM11.3258 0.7578H11.4602V2.17421H11.3258V0.7578ZM11.1875 0.616394H12.8875V2.31639H11.1875V0.616394Z"
    fill="#26C2EE" />
  <path
    d="M14.5703 4.68047H14.7031V6.09688H14.5703V4.68047ZM14.3125 4.68047H14.4515V6.09688H14.3125V4.68047ZM14.0546 4.68047H14.1945V6.09688H14.0546V4.68047ZM13.7968 4.68047H13.9367V6.09688H13.7968V4.68047ZM13.539 4.68047H13.6789V6.09688H13.539V4.68047ZM13.2867 4.68047H13.421V6.09688H13.2867V4.68047ZM13.1453 4.53906H14.8453V6.23906H13.146L13.1453 4.53906Z"
    fill="#00ACD3" />
  <path
    d="M8.8562 8.99451C8.94891 8.99451 9.03954 9.022 9.11662 9.07351C9.19371 9.12501 9.25379 9.19822 9.28927 9.28387C9.32475 9.36953 9.33403 9.46378 9.31594 9.5547C9.29786 9.64563 9.25321 9.72916 9.18766 9.79471C9.1221 9.86027 9.03858 9.90491 8.94765 9.923C8.85672 9.94109 8.76247 9.9318 8.67682 9.89633C8.59117 9.86085 8.51796 9.80077 8.46645 9.72368C8.41494 9.64659 8.38745 9.55597 8.38745 9.46326C8.38745 9.33894 8.43684 9.21971 8.52475 9.1318C8.61265 9.04389 8.73188 8.99451 8.8562 8.99451Z"
    fill="#D5EEF2" />
  <path
    d="M8.8563 9.12734C8.89798 9.12729 8.9393 9.13497 8.97817 9.15C8.95995 9.16057 8.94442 9.17521 8.93279 9.19278C8.92116 9.21035 8.91375 9.23036 8.91113 9.25126C8.90851 9.27217 8.91076 9.29339 8.9177 9.31329C8.92464 9.33318 8.93608 9.3512 8.95113 9.36594C8.96619 9.38068 8.98444 9.39174 9.00447 9.39826C9.0245 9.40478 9.04577 9.40658 9.06662 9.40353C9.08746 9.40047 9.10732 9.39264 9.12464 9.38064C9.14195 9.36865 9.15627 9.35281 9.16646 9.33437C9.19408 9.40085 9.19961 9.47445 9.18225 9.54431C9.16488 9.61417 9.12553 9.67661 9.07 9.72242C9.01447 9.76823 8.94569 9.79499 8.8738 9.79875C8.80191 9.80252 8.73071 9.78309 8.67069 9.74333C8.61068 9.70357 8.56503 9.64558 8.54046 9.57791C8.51589 9.51025 8.51371 9.43648 8.53424 9.36748C8.55477 9.29848 8.59692 9.2379 8.65448 9.19466C8.71204 9.15143 8.78197 9.12783 8.85396 9.12734M0.562549 8.02266H22.375C21.9 7.90234 20.8727 7.73984 21.0415 7.11719C20.1782 8.11641 18.0954 7.82031 17.5696 7.32578C16.9844 8.175 13.5766 7.85234 13.3391 7.19062C12.6055 8.05 10.3313 8.05 9.59771 7.19062C9.36333 7.85234 5.95239 8.175 5.36724 7.32578C4.84145 7.81875 2.75942 8.11641 1.89536 7.11719C2.06489 7.74219 1.03599 7.90234 0.561768 8.02266"
    fill="#3A4E55" />
  <path
    d="M10.1024 12.3735C9.1431 11.9646 8.37392 11.208 7.94932 10.2555C7.44198 10.3901 6.92143 10.4687 6.39697 10.4899C6.16989 10.5024 5.93109 10.5089 5.68057 10.5094C5.39202 10.5094 5.08786 10.5008 4.76807 10.4836C5.38509 11.1261 6.13324 11.6283 6.96164 11.9558C7.79003 12.2834 8.67926 12.4288 9.56885 12.3821C9.74801 12.3821 9.92588 12.3787 10.1024 12.3719"
    fill="#C0DBE1" />
  <path
    d="M8.38057 11.0102C8.21027 10.7747 8.0657 10.5217 7.94932 10.2555C7.44198 10.3901 6.92143 10.4687 6.39697 10.4899C7.01463 10.7996 7.69037 10.9763 8.38057 11.0086"
    fill="#D5EEF2" />
</svg>