<svg width="57" height="43" viewBox="0 0 57 43" fill="none" xmlns="http://www.w3.org/2000/svg">
  <path
    d="M4.15625 0H52.8438C55.138 0 57 1.9264 57 4.3V38.7C57 39.8404 56.5621 40.9342 55.7827 41.7406C55.0032 42.547 53.9461 43 52.8438 43H4.15625C3.05394 43 1.99679 42.547 1.21734 41.7406C0.437889 40.9342 0 39.8404 0 38.7L0 4.3C0 1.9264 1.862 0 4.15625 0ZM3.5625 10.8409V38.7C3.5625 39.0391 3.8285 39.3143 4.15625 39.3143H52.8438C53.0012 39.3143 53.1522 39.2496 53.2636 39.1344C53.3749 39.0192 53.4375 38.8629 53.4375 38.7V10.8409L30.8275 26.6477C29.4215 27.6306 27.5785 27.6306 26.1725 26.6477L3.5625 10.8409ZM3.5625 4.3V6.39349L28.1675 23.5935C28.2657 23.6621 28.3815 23.6988 28.5 23.6988C28.6185 23.6988 28.7343 23.6621 28.8325 23.5935L53.4375 6.39349V4.3C53.4375 4.13708 53.3749 3.98083 53.2636 3.86563C53.1522 3.75043 53.0012 3.68571 52.8438 3.68571H4.15625C3.99878 3.68571 3.84776 3.75043 3.73641 3.86563C3.62506 3.98083 3.5625 4.13708 3.5625 4.3Z"
    fill="#457B9D" />
</svg>