<svg width="21" height="21" viewBox="0 0 21 21" fill="none" xmlns="http://www.w3.org/2000/svg">
  <path
    d="M0.708252 9.03123L6.72909 2.99998L8.4895 4.77081C8.2395 5.65623 8.64575 6.62498 9.45825 7.09373V12.8646C8.83325 13.2187 8.41659 13.8958 8.41659 14.6666C8.41659 15.2192 8.63608 15.7491 9.02678 16.1398C9.41748 16.5305 9.94738 16.75 10.4999 16.75C11.0525 16.75 11.5824 16.5305 11.9731 16.1398C12.3638 15.7491 12.5833 15.2192 12.5833 14.6666C12.5833 13.8958 12.1666 13.2187 11.5416 12.8646V7.80206L13.6978 9.97915C13.6249 10.1354 13.6249 10.3125 13.6249 10.5C13.6249 11.0525 13.8444 11.5824 14.2351 11.9731C14.6258 12.3638 15.1557 12.5833 15.7083 12.5833C16.2608 12.5833 16.7907 12.3638 17.1814 11.9731C17.5721 11.5824 17.7916 11.0525 17.7916 10.5C17.7916 9.94745 17.5721 9.41754 17.1814 9.02684C16.7907 8.63614 16.2608 8.41665 15.7083 8.41665C15.5208 8.41665 15.3437 8.41665 15.1874 8.48956L12.5103 5.81248C12.6397 5.33002 12.5895 4.81701 12.3692 4.36872C12.1489 3.92043 11.7734 3.56733 11.3124 3.37498C10.8645 3.20831 10.3958 3.16665 9.97909 3.28123L8.20825 1.52081L9.03117 0.708313C9.84367 -0.114604 11.1562 -0.114604 11.9687 0.708313L20.2916 9.03123C21.1145 9.84373 21.1145 11.1562 20.2916 11.9687L11.9687 20.2916C11.1562 21.1146 9.84367 21.1146 9.03117 20.2916L0.708252 11.9687C-0.114665 11.1562 -0.114665 9.84373 0.708252 9.03123Z"
    fill="black" />
</svg>