<svg width="52" height="56" viewBox="0 0 52 56" fill="none" xmlns="http://www.w3.org/2000/svg">
  <path
    d="M20.0231 50.7178C20.0227 50.5313 19.9815 50.3472 19.9022 50.1784C19.823 50.0096 19.7077 49.8603 19.5645 49.7409C19.4212 49.6215 19.2536 49.5349 19.0733 49.4873C18.893 49.4397 18.7044 49.4322 18.5209 49.4653C14.4725 50.2163 9.33429 50.2264 7.84223 46.0363C6.92425 43.7972 5.45341 41.8275 3.56721 40.3111C3.17711 40.1113 2.82541 39.8442 2.52837 39.5219C2.48018 39.2247 2.32812 38.9541 2.09922 38.7583C1.87033 38.5626 1.57942 38.4543 1.2782 38.4528H1.27311C0.935907 38.4528 0.612478 38.5865 0.373801 38.8247C0.135124 39.0628 0.000698437 39.3859 2.40323e-05 39.723C-0.00761448 41.1741 1.80781 42.2611 2.34759 42.5487C3.69706 43.7579 4.75882 45.2573 5.45902 46.9298C6.34508 49.4246 9.04912 53.2812 17.482 52.2044C17.4897 53.1336 17.5024 53.6122 17.5126 53.9787L17.5253 54.7272C17.5253 55.0647 17.6594 55.3885 17.8982 55.6272C18.1369 55.8659 18.4608 56 18.7984 56C19.136 56 19.4599 55.8659 19.6986 55.6272C19.9374 55.3885 20.0715 55.0647 20.0715 54.7272L20.0588 53.9075C20.0297 52.8445 20.0178 51.7811 20.0231 50.7178ZM48.7134 10.9011C48.6329 10.7992 48.5515 10.6983 48.4689 10.5981C48.6395 10.0635 48.7745 9.51114 48.8712 8.95618C49.2657 6.22433 48.9165 3.43666 47.8604 0.886439C47.7913 0.713293 47.6851 0.557429 47.5491 0.429863C47.4132 0.302296 47.2509 0.206143 47.0736 0.148197C46.7146 0.0285514 43.425 -0.857338 36.5579 3.6663C30.8068 2.20485 24.7813 2.20485 19.0301 3.6663C12.1656 -0.80388 8.89635 0.0336427 8.53224 0.14056C8.35149 0.197257 8.18557 0.293337 8.04644 0.421875C7.90731 0.550414 7.79843 0.708211 7.72765 0.883894C6.65209 3.47281 6.30518 6.30653 6.72446 9.07838C6.82122 9.58751 6.94598 10.089 7.09366 10.5854C7.00633 10.6921 6.92144 10.8007 6.83904 10.9113C4.68423 13.6452 3.53773 17.0382 3.59267 20.5186C3.58758 21.3077 3.62323 22.0969 3.70216 22.8835C4.56785 34.7565 12.2293 38.0607 18.8442 39.1885C18.4143 39.9615 18.0921 40.7897 17.8869 41.6501C17.815 41.9748 17.8732 42.3148 18.0488 42.5972C18.2245 42.8796 18.5038 43.0821 18.8268 43.1612C19.1499 43.2404 19.4912 43.19 19.7775 43.0208C20.0639 42.8516 20.2727 42.5771 20.3592 42.256C20.596 41.085 21.1867 40.0158 22.0524 39.1961C22.2388 39.0339 22.374 38.821 22.4414 38.5834C22.5088 38.3457 22.5057 38.0936 22.4322 37.8577C22.3588 37.6218 22.2183 37.4124 22.0279 37.255C21.8375 37.0976 21.6054 36.999 21.3599 36.9712C14.3426 36.1744 7.05546 33.8527 6.24069 22.6518C6.16876 21.9431 6.13561 21.2309 6.14139 20.5186C6.09314 17.5968 7.05551 14.7481 8.86579 12.4539C9.0593 12.1943 9.27318 11.9601 9.48451 11.7259C9.64276 11.5509 9.74939 11.3355 9.79254 11.1036C9.83569 10.8718 9.81368 10.6324 9.72894 10.4123C9.51197 9.83843 9.34666 9.24633 9.23499 8.64307C8.92998 6.59728 9.13284 4.50788 9.8257 2.55894C12.849 2.97866 15.7046 4.2005 18.0957 6.09741C18.2483 6.20093 18.4218 6.26983 18.6038 6.2993C18.7859 6.32876 18.9723 6.31807 19.1498 6.26797C24.8128 4.73203 30.7829 4.73203 36.4459 6.26797C36.6239 6.31793 36.8106 6.32856 36.993 6.29911C37.1755 6.26965 37.3494 6.20082 37.5026 6.09741C39.8768 4.17865 42.7319 2.94772 45.7573 2.53857C46.4418 4.45929 46.6489 6.51761 46.3607 8.53615C46.2482 9.1773 46.0725 9.80574 45.8362 10.4123C45.7518 10.6327 45.7302 10.8721 45.7738 11.104C45.8174 11.3359 45.9245 11.5512 46.0832 11.7259C46.3072 11.9728 46.5288 12.2477 46.7274 12.4947C48.5417 14.7709 49.5051 17.6085 49.4518 20.5186C49.4569 21.2466 49.4212 21.9747 49.3448 22.6977C48.5377 33.8502 41.2225 36.1693 34.1773 36.9712C33.9316 36.9986 33.6991 37.0969 33.5084 37.2541C33.3176 37.4114 33.1767 37.6207 33.103 37.8567C33.0293 38.0926 33.0259 38.345 33.0932 38.5828C33.1606 38.8207 33.2957 39.0338 33.4822 39.1961C34.3606 40.0234 34.9488 41.1104 35.1601 42.2993C35.3765 43.1368 35.4784 43.9998 35.4605 44.8653V51.1276C35.4351 52.8459 35.4351 54.1366 35.4351 54.7272C35.4351 55.0647 35.5692 55.3885 35.808 55.6272C36.0467 55.8659 36.3705 56 36.7082 56C37.0458 56 37.3696 55.8659 37.6084 55.6272C37.8471 55.3885 37.9813 55.0647 37.9813 54.7272C37.9813 54.1417 37.9813 52.8663 38.0067 51.1454V44.8653C38.026 43.7879 37.8975 42.713 37.6248 41.6705C37.4335 40.8027 37.1188 39.9669 36.6903 39.1885C43.3333 38.0633 51.0253 34.759 51.8808 22.9344C51.9648 22.1325 52.0056 21.3256 51.9979 20.5186C52.0558 17.0283 50.8942 13.6271 48.7134 10.9011Z"
    fill="#457B9D" />
</svg>