<svg width="553" height="387" viewBox="0 0 553 387" fill="none" xmlns="http://www.w3.org/2000/svg">
  <g filter="url(#filter0_d_157_237)">
    <path
      d="M268.988 359.083L32.2973 219.193C24.7618 214.957 18.3028 208.014 25.6451 203.46L263.178 66.5657C266.739 64.3575 272.149 62.9084 275.779 65.02L524.201 209.215C531.736 213.59 533.089 225.777 525.581 230.193L300.179 358.834C295.45 361.583 290.086 363.052 284.617 363.095C279.147 363.139 273.761 361.756 268.988 359.083Z"
      fill="#F1FAEE" />
  </g>
  <path style="mix-blend-mode:multiply"
    d="M371.932 269.057L409.554 289.939C409.554 289.939 374.402 317.651 358.627 324.331L320.964 301.904"
    fill="url(#paint0_linear_157_237)" />
  <path style="mix-blend-mode:multiply"
    d="M373.463 185.574L411.086 206.455C411.086 206.455 402.073 220.712 386.243 227.336L345.585 204.909"
    fill="url(#paint1_linear_157_237)" />
  <path style="mix-blend-mode:multiply"
    d="M169.965 267.912C169.965 267.912 124.49 242.449 124.214 242.021L194.862 206.455L234.596 229.393L169.965 267.912Z"
    fill="url(#paint2_linear_157_237)" />
  <path
    d="M117.796 163.933L60.1067 199.692C59.5779 200.019 59.1434 200.478 58.8461 201.024C58.5488 201.57 58.3991 202.184 58.4116 202.805C58.4242 203.427 58.5986 204.034 58.9176 204.568C59.2367 205.101 59.6893 205.543 60.2309 205.848L147.786 255.325C149.003 256.026 150.383 256.395 151.788 256.395C153.193 256.395 154.573 256.026 155.791 255.325L213.218 221.567C217.358 218.145 216.226 213.066 213.218 211.41L126.173 163.823C124.898 163.08 123.445 162.699 121.969 162.718C120.494 162.738 119.051 163.158 117.796 163.933Z"
    fill="#68E1FD" />
  <path
    d="M117.796 161.477L60.1067 197.236C59.5778 197.562 59.1433 198.021 58.846 198.567C58.5488 199.113 58.399 199.727 58.4115 200.349C58.4241 200.97 58.5985 201.578 58.9175 202.111C59.2366 202.645 59.6893 203.086 60.2309 203.391L147.772 252.91C148.989 253.611 150.37 253.98 151.774 253.98C153.179 253.98 154.559 253.611 155.777 252.91L213.204 219.152C213.877 218.761 214.436 218.201 214.824 217.526C215.213 216.852 215.417 216.087 215.417 215.308C215.417 214.53 215.213 213.765 214.824 213.091C214.436 212.416 213.877 211.855 213.204 211.465L126.159 161.422C124.891 160.673 123.443 160.284 121.97 160.293C120.497 160.303 119.055 160.712 117.796 161.477Z"
    fill="white" />
  <path d="M121.633 163.409L63.6538 199.899L150.367 249.515L210.195 214.335L121.633 163.409Z" fill="#606060" />
  <path
    d="M184.083 234.347C182.948 234.347 182.027 233.915 182.027 233.381C182.027 232.848 182.948 232.415 184.083 232.415C185.219 232.415 186.14 232.848 186.14 233.381C186.14 233.915 185.219 234.347 184.083 234.347Z"
    fill="#383097" />
  <path style="mix-blend-mode:multiply"
    d="M119.493 223.886C119.493 223.886 111.944 209.85 111.903 209.781L113.2 209.132L129.237 218.393L119.493 223.886Z"
    fill="url(#paint3_linear_157_237)" />
  <path
    d="M51.6883 172.117C51.708 172.017 51.708 171.914 51.6883 171.814C52.4757 171.402 53.3235 171.118 54.2001 170.972L108.025 203.101C108.025 203.101 111.254 205.627 105.265 209.036L50.6255 176.561C50.6781 175.024 51.0395 173.513 51.6883 172.117Z"
    fill="#CCCCCC" />
  <path
    d="M108.135 203.087C108.135 203.087 114.401 210.098 114.511 210.554C114.622 211.009 105.444 209.022 105.444 209.022"
    fill="#CCCCCC" />
  <path
    d="M50.8227 176.572C49.8326 176.001 49.7683 174.258 50.6792 172.681C51.59 171.103 53.1311 170.288 54.1212 170.859C55.1114 171.431 55.1757 173.173 54.2648 174.751C53.354 176.329 51.8129 177.144 50.8227 176.572Z"
    fill="#F2F2F2" />
  <path
    d="M323.696 158.275L301.09 169.164C300.241 169.575 299.519 170.209 299.002 170.998C298.485 171.787 298.192 172.702 298.155 173.645C298.119 174.588 298.339 175.523 298.792 176.35C299.246 177.178 299.916 177.866 300.731 178.342L354.321 209.602C355.48 210.277 356.854 210.478 358.158 210.165C359.462 209.851 360.594 209.046 361.319 207.918L374.333 187.699"
    fill="#1D3557" />
  <path
    d="M446.707 105.913L266.38 2.03112C265.143 1.3154 263.739 0.938375 262.31 0.93805C260.881 0.937724 259.478 1.31411 258.24 2.02927C257.003 2.74442 255.976 3.77308 255.264 5.01155C254.551 6.25002 254.177 7.65454 254.18 9.08355V117.147C254.181 118.333 254.493 119.499 255.087 120.526C255.68 121.553 256.534 122.406 257.561 122.999L449.771 233.947C450.434 234.33 451.187 234.531 451.952 234.531C452.718 234.531 453.471 234.329 454.134 233.946C454.797 233.562 455.347 233.011 455.73 232.348C456.112 231.684 456.313 230.931 456.312 230.165V122.516C456.308 119.149 455.418 115.843 453.732 112.929C452.046 110.015 449.623 107.595 446.707 105.913Z"
    fill="#A8DADC" />
  <path
    d="M266.408 10.2014L441.242 110.799C443.109 111.874 444.66 113.422 445.739 115.288C446.817 117.154 447.384 119.271 447.383 121.426V202.439C447.381 203.213 447.176 203.974 446.788 204.645C446.401 205.315 445.844 205.872 445.173 206.261C444.503 206.649 443.743 206.855 442.968 206.857C442.193 206.86 441.432 206.659 440.759 206.275L262.447 103.953C261.781 103.572 261.227 103.021 260.842 102.357C260.456 101.693 260.253 100.939 260.252 100.172V13.8036C260.255 13.0834 260.445 12.3764 260.805 11.7523C261.164 11.1282 261.68 10.6087 262.302 10.245C262.923 9.88122 263.629 9.6859 264.349 9.67827C265.069 9.67064 265.779 9.85097 266.408 10.2014Z"
    fill="white" />
  <path
    d="M335.438 159.415C334.984 157.058 336.284 154.825 338.342 154.429C340.401 154.032 342.437 155.622 342.891 157.98C343.345 160.338 342.045 162.57 339.987 162.967C337.928 163.363 335.892 161.773 335.438 159.415Z"
    fill="#AB643C" />
  <path
    d="M257.519 204.992L210.347 231.946C209.854 232.23 209.445 232.64 209.16 233.133C208.875 233.626 208.726 234.185 208.726 234.754C208.726 235.324 208.875 235.883 209.16 236.376C209.445 236.869 209.854 237.278 210.347 237.563L341.376 312.945C342.964 313.861 344.766 314.343 346.599 314.343C348.433 314.343 350.235 313.861 351.823 312.945L395.987 287.454C396.5 287.157 396.926 286.731 397.222 286.217C397.518 285.703 397.674 285.121 397.674 284.528C397.674 283.936 397.518 283.353 397.222 282.84C396.926 282.326 396.5 281.9 395.987 281.603L263.413 205.02C262.52 204.495 261.505 204.217 260.47 204.212C259.435 204.207 258.417 204.476 257.519 204.992Z"
    fill="#1D3557" />
  <path
    d="M328.803 247.969L315.333 255.946L325.325 261.756C328.085 260.114 336.228 255.339 338.836 253.807L328.803 247.969Z"
    fill="white" />
  <path d="M314.05 239.398L300.58 247.376L313.235 254.732C315.444 253.448 323.6 248.631 326.747 246.782L314.05 239.398Z"
    fill="white" />
  <path
    d="M260.445 208.277L246.768 216.13L258.941 223.196C260.873 222.078 269.126 217.206 272.453 215.246L260.445 208.277Z"
    fill="white" />
  <path
    d="M289.262 224.962L275.792 232.939L285.785 238.736C288.145 237.356 296.273 232.567 299.296 230.786L289.262 224.962Z"
    fill="white" />
  <path
    d="M274.509 216.433L261.039 224.41L273.75 231.766C275.241 230.911 283.715 225.915 287.262 223.817L274.509 216.433Z"
    fill="white" />
  <path
    d="M340.892 254.994L327.422 262.971L336.987 268.491C339.857 266.808 347.945 262.046 350.498 260.542L340.892 254.994Z"
    fill="white" />
  <path
    d="M301.352 232.029L287.882 240.006L298.468 246.147C300.952 244.767 309.053 239.923 311.979 238.198L301.352 232.029Z"
    fill="white" />
  <path
    d="M352.555 261.77L339.085 269.747L351.741 277.103C354.39 275.558 362.464 270.796 365.252 269.154L352.555 261.77Z"
    fill="white" />
  <path d="M367.322 270.341L353.852 278.318L376.555 291.498L390.246 283.645L367.322 270.341Z" fill="white" />
  <path
    d="M245.016 218.462L231.339 226.315L249.018 236.583C251.337 235.203 259.466 230.441 262.529 228.633L245.016 218.462Z"
    fill="white" />
  <path
    d="M279.353 238.391L265.883 246.368L275.875 252.178C278.553 250.619 286.627 245.857 289.387 244.229L279.353 238.391Z"
    fill="white" />
  <path
    d="M304.113 252.786L290.643 260.763L303.298 268.119C305.838 266.642 313.925 261.867 316.81 260.169L304.113 252.786Z"
    fill="white" />
  <path
    d="M291.443 245.416L277.973 253.393L288.558 259.534C291.319 257.92 299.42 253.144 302.07 251.585L291.443 245.416Z"
    fill="white" />
  <path
    d="M318.894 261.356L305.424 269.333L315.416 275.144C318.507 273.336 326.636 268.533 328.927 267.194L318.894 261.356Z"
    fill="white" />
  <path
    d="M330.983 268.381L317.513 276.358L327.078 281.879C330.224 280.043 338.367 275.226 340.589 273.929L330.983 268.381Z"
    fill="white" />
  <path d="M264.599 229.82L251.129 237.797L263.785 245.14C265.786 243.98 274.026 239.122 277.297 237.19L264.599 229.82Z"
    fill="white" />
  <path
    d="M342.646 275.157L329.176 283.135L341.831 290.491C344.757 288.779 352.872 284.004 355.343 282.541L342.646 275.157Z"
    fill="white" />
  <path d="M343.943 291.705L361.14 301.683L374.817 293.83L357.413 283.714L343.943 291.705Z" fill="white" />
  <path d="M333.868 290.339L323.848 296.287L335.469 303.008L345.64 297.17L333.868 290.339Z" fill="white" />
  <path d="M337.87 304.402L347.752 310.13L357.937 304.306L347.876 298.468L337.87 304.402Z" fill="white" />
  <path d="M228.151 228.937L217.662 234.747L229.559 241.648L239.854 235.727L228.151 228.937Z" fill="white" />
  <path d="M242.076 237.025L231.96 243.028L244.657 250.398L254.939 244.491L242.076 237.025Z" fill="white" />
  <path d="M257.174 245.788L247.072 251.792L321.433 294.879L331.632 289.028L257.174 245.788Z" fill="white" />
  <path style="mix-blend-mode:multiply"
    d="M223.982 118.693L243.304 130.107C243.304 130.107 237.342 140.568 222.602 146.751L200.161 134.689"
    fill="url(#paint4_linear_157_237)" />
  <path
    d="M208.318 135.627C198.447 135.627 190.446 129.992 190.446 123.04C190.446 116.089 198.447 110.454 208.318 110.454C218.189 110.454 226.191 116.089 226.191 123.04C226.191 129.992 218.189 135.627 208.318 135.627Z"
    fill="#A8DADC" />
  <path
    d="M208.305 121.081C200.911 121.081 194.918 118.627 194.918 115.601C194.918 112.575 200.911 110.122 208.305 110.122C215.698 110.122 221.692 112.575 221.692 115.601C221.692 118.627 215.698 121.081 208.305 121.081Z"
    fill="#974C26" />
  <path
    d="M207.421 115.726C206.372 114.249 205.31 112.703 204.205 110.964C202.825 108.742 201.445 106.479 200.245 104.133C199.115 102.058 198.151 99.8988 197.36 97.6736C196.481 95.2567 195.775 92.7799 195.248 90.2624C195.11 89.5999 195 88.8822 194.876 88.275C194.876 87.9714 194.876 87.999 194.876 88.0404C194.876 88.0818 194.876 87.8334 194.876 87.4607C194.752 86.0806 194.669 84.7005 194.655 83.4032C194.594 78.7096 195.5 74.0537 197.319 69.7261C202.151 76.7343 205.409 84.7052 206.869 93.0916C206.961 93.5885 207.049 94.0899 207.131 94.596C207.131 94.596 207.269 95.5068 207.325 95.8795L207.463 97.1354C207.527 97.7702 207.587 98.4097 207.642 99.0537C207.835 101.524 207.932 103.995 207.918 106.465C207.808 109.556 207.67 112.648 207.421 115.726ZM201.735 78.7935C201.413 78.4255 201.077 78.0667 200.728 77.717C200.798 78.0352 200.798 78.365 200.728 78.6831C201.063 78.6653 201.398 78.7026 201.721 78.7935H201.735Z"
    fill="#999A1C" />
  <path
    d="M207.076 115.933C206.98 114.125 206.938 112.248 206.952 110.191C206.952 107.555 207.076 104.933 207.311 102.311C207.481 99.9542 207.837 97.6146 208.374 95.3136C208.937 92.8026 209.68 90.3351 210.596 87.93C210.844 87.2951 211.092 86.6741 211.368 86.053C211.493 85.7632 211.465 85.7908 211.437 85.8322L211.714 85.3215C212.348 84.1208 212.997 82.9339 213.715 81.7884C216.207 77.801 219.496 74.371 223.376 71.7135C223.656 80.229 222.088 88.7041 218.78 96.5557C218.587 97.025 218.389 97.485 218.186 97.9359L217.648 99.1228L217.082 100.268C216.797 100.839 216.503 101.409 216.199 101.98C215.026 104.16 213.77 106.286 212.431 108.37C210.747 110.978 208.953 113.49 207.076 115.933ZM222.258 81.7884C222.184 81.3008 222.097 80.8407 221.995 80.4083C221.902 80.7199 221.742 81.0073 221.526 81.2502C221.796 81.3965 222.043 81.5826 222.258 81.8022V81.7884Z"
    fill="#999A1C" />
  <path
    d="M206.994 116.899C207.532 115.891 208.111 114.87 208.774 113.752C209.63 112.372 210.54 110.992 211.534 109.612C212.4 108.397 213.359 107.253 214.405 106.189C215.521 105.014 216.721 103.921 217.993 102.918L218.959 102.131C219.125 102.021 219.097 102.021 219.07 102.035L219.387 101.842C220.118 101.4 220.85 100.972 221.609 100.586C224.234 99.2364 227.11 98.4424 230.055 98.2533C227.459 102.934 223.881 106.997 219.566 110.164L218.794 110.73L218.131 111.199L217.455 111.627L216.42 112.262C215.086 113.062 213.706 113.807 212.279 114.497C210.582 115.394 208.801 116.181 206.994 116.899ZM226.205 103.374C226.324 103.088 226.435 102.798 226.536 102.504C226.386 102.643 226.207 102.747 226.012 102.808C226.105 102.985 226.17 103.176 226.205 103.374Z"
    fill="#999A1C" />
  <path
    d="M207.421 115.726C206.372 114.249 205.31 112.703 204.205 110.964C202.825 108.742 201.445 106.479 200.245 104.133C199.115 102.058 198.151 99.8988 197.36 97.6736C196.481 95.2567 195.775 92.7799 195.248 90.2624C195.11 89.5999 195 88.8822 194.876 88.275C194.876 87.9714 194.876 87.999 194.876 88.0404C194.876 88.0818 194.876 87.8334 194.876 87.4607C194.752 86.0806 194.669 84.7005 194.655 83.4032C194.594 78.7096 195.5 74.0537 197.319 69.7261C202.151 76.7343 205.409 84.7052 206.869 93.0916C206.961 93.5885 207.049 94.0899 207.131 94.596C207.131 94.596 207.269 95.5068 207.325 95.8795L207.463 97.1354C207.527 97.7702 207.587 98.4097 207.642 99.0537C207.835 101.524 207.932 103.995 207.918 106.465C207.808 109.556 207.67 112.648 207.421 115.726ZM201.735 78.7935C201.413 78.4255 201.077 78.0667 200.728 77.717C200.798 78.0352 200.798 78.365 200.728 78.6831C201.063 78.6653 201.398 78.7026 201.721 78.7935H201.735Z"
    fill="#999A1C" />
  <path
    d="M207.076 115.933C206.98 114.125 206.938 112.248 206.952 110.191C206.952 107.555 207.076 104.933 207.311 102.311C207.481 99.9542 207.837 97.6146 208.374 95.3136C208.937 92.8026 209.68 90.3351 210.596 87.93C210.844 87.2951 211.092 86.6741 211.368 86.053C211.493 85.7632 211.465 85.7908 211.437 85.8322L211.714 85.3215C212.348 84.1208 212.997 82.9339 213.715 81.7884C216.207 77.801 219.496 74.371 223.376 71.7135C223.656 80.229 222.088 88.7041 218.78 96.5557C218.587 97.025 218.389 97.485 218.186 97.9359L217.648 99.1228L217.082 100.268C216.797 100.839 216.503 101.409 216.199 101.98C215.026 104.16 213.77 106.286 212.431 108.37C210.747 110.978 208.953 113.49 207.076 115.933ZM222.258 81.7884C222.184 81.3008 222.097 80.8407 221.995 80.4083C221.902 80.7199 221.742 81.0073 221.526 81.2502C221.796 81.3965 222.043 81.5826 222.258 81.8022V81.7884Z"
    fill="#999A1C" />
  <path
    d="M206.994 116.899C207.532 115.891 208.111 114.87 208.774 113.752C209.63 112.372 210.54 110.992 211.534 109.612C212.4 108.397 213.359 107.253 214.405 106.189C215.521 105.014 216.721 103.921 217.993 102.918L218.959 102.131C219.125 102.021 219.097 102.021 219.07 102.035L219.387 101.842C220.118 101.4 220.85 100.972 221.609 100.586C224.234 99.2364 227.11 98.4424 230.055 98.2533C227.459 102.934 223.881 106.997 219.566 110.164L218.794 110.73L218.131 111.199L217.455 111.627L216.42 112.262C215.086 113.062 213.706 113.807 212.279 114.497C210.582 115.394 208.801 116.181 206.994 116.899ZM226.205 103.374C226.324 103.088 226.435 102.798 226.536 102.504C226.386 102.643 226.207 102.747 226.012 102.808C226.105 102.985 226.17 103.176 226.205 103.374Z"
    fill="#999A1C" />
  <path d="M409.388 170.834L345.64 136.924L383.897 100.392L409.388 170.834Z" fill="#E63946" />
  <path
    d="M295.97 90.704C282.57 90.704 271.707 79.8413 271.707 66.4415C271.707 53.0416 282.57 42.1789 295.97 42.1789C309.37 42.1789 320.232 53.0416 320.232 66.4415C320.232 79.8413 309.37 90.704 295.97 90.704Z"
    fill="#A8DADC" />
  <path
    d="M422.803 123.151C426.667 120.942 430.145 126.905 426.281 129.113C414.287 136.013 423.893 151.029 432.822 155.335C436.825 157.254 433.333 163.216 429.345 161.297C415.405 154.576 406.241 132.494 422.803 123.151Z"
    fill="#457B9D" />
  <path
    d="M312.393 106.272C316.064 89.1169 339.154 99.6472 335.138 115.201C333.399 121.936 326.056 125.856 319.708 122.516C316.932 120.924 314.731 118.497 313.417 115.58C312.104 112.662 311.745 109.405 312.393 106.272ZM319.045 110.578C319.192 111.852 319.656 113.068 320.397 114.115C321.137 115.162 322.13 116.005 323.282 116.568C328.554 118.583 328.43 111.889 327.133 108.687C324.814 102.753 317.914 103.512 319.073 110.633L319.045 110.578Z"
    fill="#56403D" />
  <path
    d="M323.075 326.719C322.934 325.826 322.576 324.982 322.032 324.26C321.488 323.538 320.775 322.961 319.956 322.578L309.95 316.81L294.493 307.853L276.027 297.157L256.374 285.784L237.37 274.743L220.808 265.179L208.594 258.113L202.176 254.4C202.176 254.538 201.956 254.538 201.818 254.497C201.056 254.311 200.258 254.325 199.503 254.536C198.748 254.748 198.06 255.15 197.505 255.705C196.95 256.26 196.548 256.948 196.336 257.703C196.125 258.458 196.111 259.255 196.297 260.017C197.042 262.916 199.513 265.469 201.818 267.236C209.29 272.6 217.089 277.496 225.169 281.892V279.008C219.732 276.027 208.001 269.347 203.087 264.241L205.433 265.621L211.892 269.402L221.622 275.088L233.767 282.182L247.527 290.284L261.963 298.716L276.261 307.066L289.566 314.85L300.979 321.571L309.771 326.705C312.448 328.278 315.36 330.404 318.479 331.011C319.068 331.053 319.659 330.973 320.215 330.776C320.772 330.579 321.281 330.269 321.713 329.866C322.144 329.464 322.488 328.976 322.722 328.435C322.956 327.893 323.077 327.309 323.075 326.719Z"
    fill="#A8DADC" />
  <path style="mix-blend-mode:multiply"
    d="M244.85 179.556L265.469 191.839C265.469 191.839 251.93 204.813 236.156 211.451L216.986 198.933"
    fill="url(#paint5_linear_157_237)" />
  <path d="M246.824 170.793V180.44L217.027 198.892L181.254 177.031V168.805" fill="#E54C3C" />
  <path d="M181.254 168.805L211.63 150.629L246.824 170.793L216.447 189.245L181.254 168.805Z" fill="#E63946" />
  <defs>
    <filter id="filter0_d_157_237" x="-4.77794" y="47.6741" width="562.551" height="353.494"
      filterUnits="userSpaceOnUse" color-interpolation-filters="sRGB">
      <feFlood flood-opacity="0" result="BackgroundImageFix" />
      <feColorMatrix in="SourceAlpha" type="matrix" values="0 0 0 0 0 0 0 0 0 0 0 0 0 0 0 0 0 0 127 0"
        result="hardAlpha" />
      <feOffset dy="10.8778" />
      <feGaussianBlur stdDeviation="13.5973" />
      <feComposite in2="hardAlpha" operator="out" />
      <feColorMatrix type="matrix" values="0 0 0 0 0 0 0 0 0 0 0 0 0 0 0 0 0 0 0.07 0" />
      <feBlend mode="normal" in2="BackgroundImageFix" result="effect1_dropShadow_157_237" />
      <feBlend mode="normal" in="SourceGraphic" in2="effect1_dropShadow_157_237" result="shape" />
    </filter>
    <linearGradient id="paint0_linear_157_237" x1="327.671" y1="265.303" x2="380.765" y2="308.515"
      gradientUnits="userSpaceOnUse">
      <stop stop-color="#D4A397" />
      <stop offset="1" stop-color="white" />
    </linearGradient>
    <linearGradient id="paint1_linear_157_237" x1="-9366.85" y1="6502.15" x2="-8013.58" y2="8229.74"
      gradientUnits="userSpaceOnUse">
      <stop stop-color="#D4A397" />
      <stop offset="1" stop-color="white" />
    </linearGradient>
    <linearGradient id="paint2_linear_157_237" x1="163.52" y1="212.307" x2="190.473" y2="252.013"
      gradientUnits="userSpaceOnUse">
      <stop offset="0.01" stop-color="#4D4D4D" />
      <stop offset="1" stop-color="white" />
    </linearGradient>
    <linearGradient id="paint3_linear_157_237" x1="-5369.91" y1="2730.8" x2="-5282.17" y2="2882.69"
      gradientUnits="userSpaceOnUse">
      <stop offset="0.01" stop-color="#4D4D4D" />
      <stop offset="1" stop-color="white" />
    </linearGradient>
    <linearGradient id="paint4_linear_157_237" x1="210.899" y1="120.597" x2="230.234" y2="141.782"
      gradientUnits="userSpaceOnUse">
      <stop stop-color="#78B46A" />
      <stop offset="0.03" stop-color="#7F3500" />
      <stop offset="1" stop-color="white" />
    </linearGradient>
    <linearGradient id="paint5_linear_157_237" x1="-11384.7" y1="4980.66" x2="-10721.4" y2="5801.63"
      gradientUnits="userSpaceOnUse">
      <stop stop-color="#D4A397" />
      <stop offset="1" stop-color="white" />
    </linearGradient>
  </defs>
</svg>