<svg width="61" height="61" viewBox="0 0 61 61" fill="none" xmlns="http://www.w3.org/2000/svg">
  <path
    d="M26.5043 14.1487L16.8134 2.96252C15.6962 1.67346 13.6481 1.67919 12.3504 2.97971L4.38113 10.9633C2.00926 13.338 1.33035 16.8643 2.70249 19.6917C10.8998 36.6642 24.588 50.3716 41.5491 58.5927C44.3736 59.9649 47.897 59.2859 50.2689 56.9112L58.3126 48.8531C59.616 47.5498 59.6189 45.4901 58.3184 44.3729L47.0892 34.7336C45.9147 33.7253 44.09 33.857 42.9126 35.0373L39.0054 38.9503C38.8053 39.1599 38.542 39.2981 38.2558 39.3437C37.9697 39.3892 37.6765 39.3396 37.4212 39.2024C31.0345 35.5245 25.7366 30.2197 22.0671 23.8281C21.9296 23.5725 21.8799 23.2788 21.9254 22.9921C21.971 22.7055 22.1093 22.4417 22.3192 22.2412L26.215 18.3425C27.3952 17.1565 27.5241 15.3232 26.5043 14.1459V14.1487Z"
    stroke="#457B9D" stroke-width="2.55814" stroke-linecap="round" stroke-linejoin="round" />
</svg>