<svg width="55" height="53" viewBox="0 0 55 53" fill="none" xmlns="http://www.w3.org/2000/svg">
  <path
    d="M53.5715 52.989H42.4026C41.6126 52.989 40.9741 52.3469 40.9741 51.5525V33.4651C40.9741 27.2619 37.7923 27.2619 36.7425 27.2619C33.9178 27.2619 32.7165 29.5038 32.3269 30.4724C32.1429 30.9078 32.0563 31.6477 32.0563 32.6817V51.5635C32.0563 52.358 31.4178 53 30.6278 53H19.4481C19.0693 53 18.7013 52.8476 18.4308 52.5756C18.1603 52.3036 18.0087 51.9334 18.0195 51.5525C18.0195 51.2479 18.171 20.9173 18.0195 17.8156C17.9979 17.4238 18.1386 17.0429 18.4092 16.76C18.6798 16.477 19.0477 16.3137 19.4481 16.3137H30.6278C31.4178 16.3137 32.0563 16.9558 32.0563 17.7502V18.5991C33.9394 16.9123 36.6559 15.5192 40.7035 15.5192C49.6537 15.5192 55 21.7442 55 32.17V51.5525C55 52.3469 54.3615 52.989 53.5715 52.989ZM43.8312 50.116L52.1537 50.1158V32.1699C52.1537 23.4091 47.9871 18.3922 40.7143 18.3922C35.855 18.3922 33.4957 20.83 32.013 23.061C31.8399 23.6486 31.2879 24.084 30.6386 24.084H30.5629C30.0433 24.084 29.5671 23.801 29.3183 23.344C29.1235 22.9848 29.0802 22.5712 29.21 22.1903V19.1758H20.9092C20.9849 25.1723 20.9092 44.5766 20.8875 50.1051H29.1992V32.6706C29.1992 31.2232 29.3507 30.1785 29.6754 29.384C30.9308 26.2606 33.5714 24.3779 36.7317 24.3779C41.2338 24.3779 43.8203 27.6864 43.8203 33.4542V50.1159H43.8313L43.8312 50.116ZM13.2685 52.9888H2.0888C1.29876 52.9888 0.660277 52.3467 0.660277 51.5523V17.7501C0.660277 16.9557 1.29876 16.3136 2.0888 16.3136H13.2685C14.0585 16.3136 14.697 16.9557 14.697 17.7501V51.5523C14.697 52.3468 14.0585 52.9889 13.2685 52.9889V52.9888ZM3.51743 50.1158H11.8399V19.1866H3.51749V50.1158L3.51743 50.1158ZM7.68403 14.5723L7.60822 14.5722C3.20346 14.5722 0 11.5032 0 7.28068C0 3.06903 3.25758 0 7.75974 0C12.1861 0 15.3464 2.98189 15.433 7.24802C15.433 11.5032 12.1754 14.5723 7.68403 14.5723ZM7.75974 2.884C4.82682 2.884 2.85716 4.65793 2.85716 7.29164C2.85716 9.88173 4.80524 11.6992 7.60828 11.6992H7.68398C10.6061 11.6992 12.5758 9.92524 12.5758 7.29159C12.5216 4.62527 10.6277 2.884 7.75974 2.884Z"
    fill="#457B9D" />
</svg>