<svg width="12" height="25" viewBox="0 0 12 25" fill="none" xmlns="http://www.w3.org/2000/svg">
  <g clip-path="url(#clip0_409_130)">
    <path
      d="M7.99859 2.78269C6.95077 1.53947 6.04845 0.276767 5.86411 0.0145628C5.85973 0.00996117 5.85446 0.00629751 5.84862 0.00379417C5.84278 0.00129083 5.8365 0 5.83014 0C5.82379 0 5.8175 0.00129083 5.81166 0.00379417C5.80582 0.00629751 5.80055 0.00996117 5.79617 0.0145628C5.61184 0.276812 4.70952 1.53947 3.66166 2.78269C-5.33229 14.2534 5.07823 21.9944 5.07823 21.9944L5.16553 22.0527C5.24312 23.2474 5.4372 24.9666 5.4372 24.9666H6.21339C6.21339 24.9666 6.40738 23.2571 6.48502 22.0528L6.57236 21.9847C6.58206 21.9945 16.9926 14.2534 7.99859 2.78269ZM5.82527 21.8196C5.82527 21.8196 5.35956 21.4214 5.23342 21.2175V21.198L5.79617 8.70746C5.79617 8.66862 5.85442 8.66862 5.85442 8.70746L6.41712 21.198V21.2175C6.29098 21.4214 5.82527 21.8196 5.82527 21.8196V21.8196Z"
      fill="#01EC64" />
  </g>
  <defs>
    <clipPath id="clip0_409_130">
      <rect width="11.66" height="25" fill="white" />
    </clipPath>
  </defs>
</svg>