<svg width="25" height="25" viewBox="0 0 25 25" fill="none" xmlns="http://www.w3.org/2000/svg">
  <g clip-path="url(#clip0_409_132)">
    <path
      d="M24.1523 14.9702C24.007 14.53 23.6262 14.2234 23.1338 14.1498C22.9016 14.1151 22.6357 14.1299 22.321 14.1948C21.7725 14.3079 21.3656 14.351 21.0686 14.3593C22.1895 12.4668 23.101 10.3087 23.6257 8.27715C24.4742 4.99221 24.0208 3.49571 23.491 2.81882C22.0888 1.02715 20.043 0.0646487 17.575 0.0351979C16.2585 0.0190994 15.1027 0.279043 14.4998 0.465974C13.9384 0.366921 13.3348 0.311618 12.7015 0.301391C11.5143 0.282452 10.4653 0.541258 9.56899 1.07317C9.07277 0.905368 8.27637 0.668815 7.35668 0.517868C5.19361 0.162755 3.45024 0.439459 2.17505 1.34031C0.630917 2.43103 -0.0848974 4.32611 0.0474889 6.97289C0.0895344 7.81323 0.55961 10.37 1.29976 12.7949C1.72514 14.1886 2.17874 15.346 2.64796 16.2352C3.3134 17.4961 4.02542 18.2386 4.82476 18.5053C5.27277 18.6545 6.08679 18.7591 6.94294 18.046C7.05147 18.1774 7.19626 18.308 7.3884 18.4293C7.63243 18.5832 7.93082 18.709 8.22883 18.7835C9.30279 19.052 10.3088 18.9848 11.167 18.6085C11.1723 18.7611 11.1764 18.907 11.1798 19.0329C11.1855 19.2372 11.1911 19.4375 11.1986 19.6248C11.2495 20.8913 11.3357 21.876 11.591 22.565C11.605 22.6029 11.6238 22.6607 11.6437 22.7219C11.7711 23.1119 11.984 23.7647 12.5259 24.276C13.087 24.8057 13.7657 24.9681 14.3873 24.9681C14.699 24.9681 14.9964 24.9271 15.2573 24.8713C16.1873 24.6719 17.2434 24.3683 18.0074 23.2805C18.7298 22.2521 19.0809 20.7031 19.1445 18.2625C19.1527 18.1934 19.1603 18.1275 19.1676 18.0647L19.1827 17.9358L19.3529 17.9507L19.3967 17.9537C20.3439 17.9968 21.502 17.796 22.2133 17.4656C22.7753 17.2048 24.5764 16.2539 24.1523 14.9702Z"
      fill="black" />
    <path
      d="M22.5326 15.2199C19.7164 15.8008 19.5227 14.8473 19.5227 14.8473C22.4962 10.4351 23.7393 4.83446 22.6666 3.46372C19.7401 -0.27539 14.6743 1.49298 14.5898 1.53882L14.5626 1.54374C14.0061 1.42821 13.3835 1.35946 12.6836 1.348C11.4094 1.32717 10.4427 1.68209 9.70916 2.23834C9.70916 2.23834 0.672232 -1.48458 1.09259 6.92054C1.18199 8.70861 3.65547 20.4502 6.60566 16.9037C7.68397 15.6068 8.72593 14.5103 8.72593 14.5103C9.24335 14.8541 9.86286 15.0294 10.5123 14.9665L10.5628 14.9237C10.547 15.0846 10.5542 15.2421 10.5829 15.4286C9.8229 16.2777 10.0463 16.4268 8.52697 16.7396C6.98956 17.0564 7.89269 17.6204 8.48237 17.768C9.19723 17.9467 10.851 18.1999 11.9684 16.6356L11.9239 16.8141C12.2217 17.0526 12.4308 18.3655 12.3957 19.5558C12.3607 20.7459 12.3373 21.5631 12.5719 22.2013C12.8066 22.8396 13.0404 24.2757 15.0378 23.8477C16.7066 23.49 17.5715 22.5632 17.6918 21.0172C17.7772 19.9182 17.9704 20.0807 17.9826 19.098L18.1376 18.6328C18.3163 17.143 18.166 16.6623 19.1941 16.8859L19.4441 16.9078C20.2007 16.9422 21.1913 16.7861 21.7726 16.5159C23.0243 15.935 23.7667 14.965 22.5325 15.2199H22.5326Z"
      fill="#336791" />
    <path
      d="M10.2383 7.7202C9.98451 7.68488 9.75468 7.71755 9.6384 7.80562C9.57306 7.85514 9.55279 7.91253 9.5473 7.95202C9.53271 8.05666 9.60601 8.17238 9.65109 8.23204C9.77855 8.40098 9.96472 8.51707 10.149 8.54264C10.1757 8.54643 10.2023 8.54813 10.2287 8.54813C10.536 8.54813 10.8155 8.30884 10.8401 8.13223C10.8709 7.91101 10.5498 7.76348 10.2383 7.7202ZM18.6459 7.72721C18.6216 7.55382 18.3131 7.50439 18.0203 7.5451C17.7279 7.58582 17.4444 7.71783 17.468 7.8916C17.487 8.02673 17.731 8.25742 18.0198 8.25742C18.0443 8.25742 18.0689 8.25581 18.0937 8.2523C18.2865 8.2256 18.428 8.10315 18.4952 8.0326C18.5975 7.92503 18.6568 7.80514 18.6459 7.72721Z"
      fill="white" />
    <path
      d="M23.4698 15.1539C23.3624 14.8292 23.0167 14.7247 22.4425 14.8433C20.7375 15.1952 20.1269 14.9514 19.9264 14.8038C21.2517 12.7848 22.3419 10.3443 22.9301 8.06732C23.2087 6.98872 23.3626 5.98701 23.3752 5.17054C23.3891 4.27442 23.2364 3.6159 22.9217 3.21362C21.6525 1.59194 19.7899 0.722052 17.5351 0.698188C15.985 0.680764 14.6754 1.07745 14.4215 1.189C13.8868 1.05605 13.304 0.974419 12.6694 0.964003C11.5058 0.945158 10.4999 1.22376 9.66713 1.79165C9.30538 1.657 8.37053 1.33607 7.22726 1.15188C5.25074 0.8337 3.6801 1.0748 2.55927 1.86883C1.22186 2.81637 0.604436 4.51012 0.724038 6.90292C0.764284 7.70794 1.223 10.1845 1.94686 12.5561C2.8997 15.6777 3.9355 17.4449 5.02527 17.8084C5.15283 17.8509 5.29989 17.8807 5.46211 17.8807C5.85964 17.8807 6.34705 17.7015 6.85415 17.0918C7.47267 16.3499 8.11249 15.6259 8.77281 14.9208C9.20122 15.1507 9.67186 15.2792 10.1532 15.292C10.1542 15.3046 10.1554 15.3172 10.1565 15.3297C10.0737 15.4285 9.99253 15.5288 9.91315 15.6304C9.57963 16.0538 9.51021 16.1419 8.43663 16.363C8.13124 16.426 7.32016 16.5932 7.30822 17.1617C7.29535 17.7829 8.26703 18.0438 8.37773 18.0715C8.76353 18.1681 9.13521 18.2157 9.48966 18.2157C10.3517 18.2157 11.1103 17.9324 11.7166 17.3842C11.6979 19.5988 11.7902 21.781 12.0561 22.4458C12.2739 22.9901 12.806 24.3203 14.4864 24.3203C14.733 24.3203 15.0044 24.2916 15.303 24.2275C17.0569 23.8516 17.8185 23.0764 18.1131 21.3674C18.2708 20.4541 18.5414 18.2731 18.6686 17.1032C18.9372 17.187 19.2829 17.2254 19.6567 17.2253C20.4363 17.2253 21.3358 17.0596 21.8999 16.7978C22.5336 16.5035 23.6772 15.7813 23.4698 15.1539ZM19.2931 7.24857C19.2873 7.59393 19.2398 7.90747 19.1894 8.23474C19.1351 8.58673 19.0791 8.95065 19.0649 9.39241C19.051 9.82234 19.1047 10.2693 19.1566 10.7016C19.2615 11.5747 19.3692 12.4736 18.9524 13.3605C18.8832 13.2378 18.8216 13.111 18.7678 12.9809C18.716 12.8553 18.6035 12.6536 18.4477 12.3744C17.8417 11.2877 16.4227 8.74279 17.1491 7.70434C17.3655 7.39525 17.9147 7.07745 19.2931 7.24857ZM17.6222 1.39753C19.6425 1.44213 21.2406 2.1979 22.3721 3.64374C23.2399 4.75273 22.2843 9.79885 19.5179 14.1522C19.4901 14.1168 19.4621 14.0815 19.434 14.0464L19.3989 14.0026C20.1138 12.8221 19.974 11.654 19.8496 10.6184C19.7985 10.1934 19.7502 9.79194 19.7625 9.41485C19.7752 9.01523 19.828 8.67243 19.8792 8.34099C19.9419 7.93256 20.0059 7.50993 19.9882 7.01173C20.0014 6.95946 20.0067 6.89771 19.9998 6.82442C19.9548 6.34667 19.4094 4.91684 18.2976 3.62271C17.6895 2.91486 16.8026 2.12271 15.5917 1.58843C16.1126 1.48048 16.8248 1.37982 17.6222 1.39753ZM6.3175 16.6456C5.75879 17.3174 5.373 17.1886 5.2461 17.1464C4.4194 16.8706 3.46012 15.1233 2.61438 12.3524C1.88256 9.95491 1.45491 7.54402 1.42101 6.86798C1.31419 4.72991 1.83247 3.23986 2.96154 2.4391C4.79904 1.13607 7.82006 1.91599 9.03398 2.31154C9.01656 2.32878 8.99838 2.34487 8.98114 2.36239C6.9891 4.37414 7.03635 7.81126 7.04127 8.02139C7.04108 8.10245 7.0479 8.21722 7.05718 8.37508C7.09146 8.95321 7.15529 10.0292 6.98483 11.2476C6.8265 12.3799 7.17555 13.4882 7.94231 14.2882C8.02101 14.3702 8.10372 14.4482 8.19014 14.522C7.84885 14.8875 7.10709 15.6958 6.3175 16.6456ZM8.4462 13.8054C7.8282 13.1605 7.54752 12.2635 7.67603 11.3442C7.85595 10.0571 7.78957 8.93607 7.75387 8.33379C7.74885 8.24951 7.7444 8.17565 7.74184 8.11741C8.03284 7.85936 9.38142 7.13682 10.3432 7.35718C10.782 7.45766 11.0494 7.75652 11.1606 8.27054C11.736 10.9318 11.2367 12.041 10.8356 12.9324C10.7529 13.116 10.6748 13.2896 10.6081 13.4691L10.5564 13.6079C10.4256 13.9589 10.3038 14.2852 10.2283 14.5951C9.57129 14.5932 8.93218 14.3125 8.4462 13.8053V13.8054ZM8.54705 17.3944C8.35519 17.3465 8.18266 17.2632 8.08142 17.1942C8.16599 17.1544 8.31646 17.1003 8.57745 17.0465C9.84042 16.7865 10.0355 16.603 10.4614 16.0622C10.5591 15.9382 10.6698 15.7976 10.8231 15.6264L10.8233 15.6262C11.0516 15.3705 11.156 15.4139 11.3454 15.4925C11.4989 15.556 11.6485 15.7484 11.7091 15.9601C11.7378 16.0601 11.77 16.2499 11.6646 16.3976C10.7748 17.6435 9.47821 17.6274 8.54705 17.3944ZM15.1568 23.5452C13.6117 23.8762 13.0647 23.0879 12.7042 22.1866C12.4715 21.6048 12.3571 18.9811 12.4382 16.0837C12.4393 16.0452 12.4338 16.0079 12.4232 15.9729C12.4137 15.9037 12.3993 15.8353 12.38 15.7682C12.2594 15.3466 11.9653 14.9939 11.6126 14.8477C11.4724 14.7897 11.2152 14.6831 10.9061 14.7622C10.972 14.4906 11.0863 14.1839 11.2103 13.8518L11.2623 13.7121C11.3208 13.5546 11.3943 13.3915 11.472 13.2187C11.8917 12.2862 12.4667 11.0088 11.8427 8.12309C11.609 7.04222 10.8285 6.51438 9.64535 6.63701C8.93607 6.7104 8.28711 6.99658 7.96343 7.16069C7.89383 7.19591 7.83019 7.23001 7.77072 7.26315C7.86106 6.17413 8.20235 4.13891 9.47906 2.85122C10.2829 2.04061 11.3535 1.64023 12.6578 1.66182C15.2279 1.70387 16.876 3.02281 17.8061 4.12196C18.6077 5.06902 19.0417 6.02309 19.2149 6.53768C17.9123 6.4052 17.0264 6.6623 16.5774 7.30434C15.6004 8.70093 17.1118 11.4115 17.8382 12.7143C17.9715 12.953 18.0864 13.1594 18.1226 13.2471C18.3592 13.8203 18.6654 14.2031 18.889 14.4825C18.9576 14.5681 19.024 14.6511 19.0746 14.7237C18.6801 14.8374 17.9715 15.1002 18.0361 16.4137C17.984 17.0728 17.6136 20.1586 17.4255 21.2489C17.1771 22.6892 16.647 23.2256 15.1568 23.5453V23.5452ZM21.606 16.1649C21.2026 16.3521 20.5275 16.4925 19.8863 16.5227C19.1779 16.5559 18.8173 16.4434 18.7325 16.3741C18.6927 15.5556 18.9973 15.4701 19.3198 15.3795C19.3704 15.3653 19.4199 15.3514 19.4676 15.3347C19.4972 15.3589 19.5297 15.3828 19.5653 15.4063C20.1346 15.7821 21.1501 15.8226 22.5837 15.5267L22.5994 15.5236C22.406 15.7043 22.0752 15.947 21.606 16.1649Z"
      fill="white" />
  </g>
  <defs>
    <clipPath id="clip0_409_132">
      <rect width="24.25" height="25" fill="white" />
    </clipPath>
  </defs>
</svg>