<svg width="19" height="23" viewBox="0 0 19 23" fill="none" xmlns="http://www.w3.org/2000/svg">
  <path
    d="M17.6796 3.45312C16.6553 2.04764 15.1451 1.07309 13.4424 0.718781C11.7398 0.364476 9.96622 0.655721 8.46629 1.53594L3.21863 4.78125C2.51524 5.20514 1.90935 5.77288 1.44068 6.44727C0.972017 7.12166 0.651147 7.88748 0.499102 8.69453C0.249616 10.0444 0.470199 11.4391 1.1241 12.6461C0.675979 13.305 0.369759 14.05 0.224883 14.8336C0.0757517 15.6516 0.0958656 16.4916 0.283983 17.3016C0.4721 18.1115 0.824228 18.8744 1.31863 19.543C2.34295 20.9486 3.85303 21.9235 5.5557 22.2783C7.25837 22.6332 9.03215 22.3427 10.5327 21.4633L15.7811 18.2187C16.4843 17.7946 17.09 17.2268 17.5587 16.5524C18.0273 15.8781 18.3483 15.1124 18.5007 14.3055C18.7517 12.9546 18.5311 11.5584 17.8757 10.3508C18.3243 9.692 18.6308 8.94702 18.7757 8.16328C18.9248 7.34495 18.9044 6.50473 18.7159 5.69458C18.5274 4.88442 18.1747 4.12155 17.6796 3.45312Z"
    fill="#FF3E00" />
  <path
    d="M7.95468 19.8125C7.13415 20.0229 6.26933 19.9821 5.47228 19.6953C4.67523 19.4085 3.98268 18.8889 3.48436 18.2039C3.18598 17.8023 2.97321 17.3438 2.85926 16.8566C2.7453 16.3695 2.73257 15.8641 2.82186 15.3719C2.85157 15.2102 2.89309 15.0509 2.94608 14.8953L3.0453 14.6023L3.31405 14.7883C3.93791 15.2326 4.63193 15.569 5.36718 15.7836L5.55858 15.8406L5.53905 16.0258C5.51656 16.2951 5.59171 16.5635 5.75077 16.782C5.90029 16.9935 6.11074 17.1543 6.35403 17.2431C6.59733 17.3319 6.86192 17.3444 7.11249 17.2789C7.2257 17.2495 7.33391 17.2034 7.43358 17.1422L12.668 13.8969C12.7954 13.8196 12.9053 13.7165 12.9904 13.5942C13.0756 13.4718 13.1342 13.333 13.1625 13.1867C13.1906 13.0391 13.1883 12.8874 13.1555 12.7408C13.1227 12.5942 13.0602 12.4559 12.9719 12.3344C12.8216 12.1277 12.6127 11.9709 12.3723 11.8843C12.1319 11.7976 11.871 11.7851 11.6234 11.8484C11.5096 11.8779 11.4009 11.9242 11.3008 11.9859L9.2914 13.2234C8.96112 13.4278 8.60186 13.5811 8.22577 13.6781C7.40459 13.8891 6.53897 13.8485 5.74116 13.5615C4.94336 13.2745 4.25019 12.7544 3.75155 12.0687C3.45515 11.6659 3.24459 11.2064 3.13292 10.7189C3.02125 10.2313 3.01084 9.72608 3.10233 9.23435C3.19455 8.74996 3.38747 8.29034 3.66861 7.88525C3.94975 7.48016 4.31284 7.13863 4.73436 6.88279L9.97499 3.63748C10.3053 3.43335 10.6646 3.28031 11.0406 3.18357C11.8618 2.97212 12.7276 3.01244 13.5256 3.29929C14.3236 3.58614 15.017 4.10628 15.5156 4.79216C15.814 5.19376 16.0267 5.65232 16.1407 6.13945C16.2546 6.62659 16.2674 7.13193 16.1781 7.6242C16.1485 7.78589 16.107 7.94518 16.0539 8.10076L15.9547 8.39373L15.6859 8.20857C15.0624 7.76365 14.3683 7.42715 13.6328 7.21326L13.4414 7.15545L13.4609 6.97029C13.4834 6.70085 13.408 6.43234 13.2484 6.21404C13.0985 6.00712 12.8898 5.85011 12.6495 5.76344C12.4091 5.67677 12.1482 5.66446 11.9008 5.7281C11.7874 5.75746 11.6792 5.80382 11.5797 5.8656L6.32811 9.09998C6.20063 9.17684 6.09081 9.27976 6.00586 9.40201C5.9209 9.52425 5.86273 9.66306 5.83515 9.80935C5.80627 9.95701 5.8083 10.109 5.8411 10.2559C5.87391 10.4027 5.93679 10.5412 6.02577 10.6625C6.17618 10.869 6.38509 11.0256 6.62549 11.1121C6.86589 11.1986 7.1267 11.211 7.37421 11.1476C7.48786 11.1181 7.59657 11.072 7.69686 11.0109L9.69843 9.77263C10.0286 9.56816 10.3879 9.4151 10.7641 9.31873C11.5853 9.10771 12.4509 9.14824 13.2488 9.43506C14.0468 9.72188 14.7401 10.2418 15.2391 10.9273C15.5366 11.3293 15.7486 11.788 15.8619 12.2751C15.9752 12.7622 15.9873 13.2674 15.8976 13.7594C15.8061 14.2443 15.6134 14.7045 15.3322 15.1101C15.051 15.5156 14.6876 15.8574 14.2656 16.1133L9.02577 19.3586C8.69564 19.563 8.33632 19.7161 7.96015 19.8125"
    fill="white" />
</svg>