<svg width="23" height="14" viewBox="0 0 23 14" fill="none" xmlns="http://www.w3.org/2000/svg">
  <path
    d="M6.03125 4.70312C6.76042 1.78646 8.58333 0.328125 11.5 0.328125C15.875 0.328125 16.4219 3.60937 18.6094 4.15625C20.0677 4.52083 21.3438 3.97396 22.4375 2.51562C21.7083 5.43229 19.8854 6.89062 16.9688 6.89062C12.5938 6.89062 12.0469 3.60937 9.85937 3.0625C8.40104 2.69792 7.125 3.24479 6.03125 4.70312ZM0.5625 11.2656C1.29167 8.34896 3.11458 6.89062 6.03125 6.89062C10.4062 6.89062 10.9531 10.1719 13.1406 10.7187C14.599 11.0833 15.875 10.5365 16.9688 9.07812C16.2396 11.9948 14.4167 13.4531 11.5 13.4531C7.125 13.4531 6.57813 10.1719 4.39063 9.625C2.93229 9.26042 1.65625 9.80729 0.5625 11.2656Z"
    fill="#44A8B3" />
</svg>